<svg width="212" height="45" viewBox="0 0 212 45" fill="none" xmlns="http://www.w3.org/2000/svg">
<path d="M0.904297 25.4785V9.41406C0.904297 7.6888 1.63672 5.93099 3.10156 4.14062C5.05469 1.79688 7.52865 0.608724 10.5234 0.576172V5.99609C8.83073 6.02865 7.5612 6.9401 6.71484 8.73047C6.45443 9.31641 6.32422 9.80469 6.32422 10.1953V25.4785C6.32422 27.2363 7.23568 28.5384 9.05859 29.3848C9.61198 29.6452 10.084 29.7754 10.4746 29.7754V35.2441C8.61914 35.2441 6.76367 34.5768 4.9082 33.2422C2.27148 31.2891 0.936849 28.7012 0.904297 25.4785ZM13.1602 35.2441V29.7754C14.0065 29.7754 14.8854 29.3848 15.7969 28.6035C16.7734 27.7246 17.278 26.6829 17.3105 25.4785V10.1953C17.3105 9.21875 16.8874 8.27474 16.041 7.36328C15.2272 6.48438 14.2669 6.02865 13.1602 5.99609V0.576172C16.4479 0.576172 19.0846 1.99219 21.0703 4.82422C22.2096 6.45182 22.7793 7.98177 22.7793 9.41406V25.4785C22.7793 29.0918 21.168 31.8587 17.9453 33.7793C16.2526 34.7559 14.6576 35.2441 13.1602 35.2441ZM25.1367 35.2441V0.283203H30.0195V9.60938C31.1263 8.92578 32.347 8.58398 33.6816 8.58398V13.418C32.347 13.418 31.2728 14.0039 30.459 15.1758C30.1986 15.5664 30.0684 15.9245 30.0684 16.25V35.2441H25.1367ZM36.0254 13.418V8.58398C39.1178 8.58398 41.4453 9.69076 43.0078 11.9043C43.8216 13.1087 44.2285 14.3945 44.2285 15.7617V35.2441H39.2969V16.25C39.2969 15.2734 38.8574 14.5085 37.9785 13.9551C37.3926 13.597 36.7415 13.418 36.0254 13.418ZM46.5371 32.8516C46.5371 31.6146 47.0905 30.7194 48.1973 30.166C48.6204 29.9382 49.0599 29.8242 49.5156 29.8242C50.7526 29.8242 51.6478 30.3776 52.2012 31.4844C52.3965 31.9401 52.4941 32.3958 52.4941 32.8516C52.4941 34.0885 51.9245 34.9674 50.7852 35.4883C50.362 35.6836 49.9388 35.7812 49.5156 35.7812C48.2461 35.7812 47.3509 35.2279 46.8301 34.1211C46.6348 33.6979 46.5371 33.2747 46.5371 32.8516ZM47.0254 26.8945V0.820312H52.0547V26.8945H47.0254ZM54.3145 27.2852L59.2461 25.5273C59.4414 27.6432 60.597 29.1081 62.7129 29.9219C63.1035 30.0521 63.2988 30.1172 63.2988 30.1172V35.1465C60.4993 35.1465 58.123 33.9421 56.1699 31.5332C54.9655 30.0033 54.347 28.5872 54.3145 27.2852ZM54.7051 10.0977C54.7051 6.54948 56.235 3.88021 59.2949 2.08984C60.7272 1.27604 62.0618 0.852865 63.2988 0.820312V5.94727C62.2897 6.11003 61.4108 6.69596 60.6621 7.70508C60.1738 8.42122 59.9297 9.1862 59.9297 10C59.9297 11.6927 61.1504 13.0436 63.5918 14.0527C64.1777 14.2806 65.0892 14.5898 66.3262 14.9805C67.8887 15.4688 68.9792 15.8594 69.5977 16.1523C72.4297 17.5521 74.2689 19.2122 75.1152 21.1328C75.6035 22.2721 75.8477 23.5254 75.8477 24.8926C75.8477 27.7572 74.7409 30.2474 72.5273 32.3633C70.5417 34.2188 68.3118 35.1465 65.8379 35.1465V30.1172C67.0749 30.0521 68.1816 29.4661 69.1582 28.3594C69.972 27.3828 70.3789 26.2598 70.3789 24.9902C70.3789 23.0046 68.9954 21.5072 66.2285 20.498C65.6426 20.2702 64.7311 19.9772 63.4941 19.6191C62.127 19.2285 61.1992 18.9193 60.7109 18.6914C57.9766 17.487 56.2188 15.9408 55.4375 14.0527C54.9492 12.9134 54.7051 11.5951 54.7051 10.0977ZM65.8379 5.94727V0.820312C68.6374 0.820312 70.9811 2.02474 72.8691 4.43359C73.8783 5.73568 74.4154 6.92383 74.4805 7.99805L69.4512 9.6582C69.321 8.68164 68.9466 7.88411 68.3281 7.26562C67.7422 6.64714 67.1888 6.27279 66.668 6.14258L65.8379 5.94727ZM77.4727 35.2441V0.283203H82.3555V9.60938C83.4622 8.92578 84.6829 8.58398 86.0176 8.58398V13.418C84.6829 13.418 83.6087 14.0039 82.7949 15.1758C82.5345 15.5664 82.4043 15.9245 82.4043 16.25V35.2441H77.4727ZM88.3613 13.418V8.58398C91.4538 8.58398 93.7812 9.69076 95.3438 11.9043C96.1576 13.1087 96.5645 14.3945 96.5645 15.7617V35.2441H91.6328V16.25C91.6328 15.2734 91.1934 14.5085 90.3145 13.9551C89.7285 13.597 89.0775 13.418 88.3613 13.418ZM98.5312 27.627V15.2734C98.5312 13.6784 99.2474 12.1322 100.68 10.6348C102.372 8.8444 104.505 7.94922 107.076 7.94922V12.9785C105.383 12.9785 104.293 13.6784 103.805 15.0781C103.707 15.3711 103.658 15.6641 103.658 15.957V26.9434C103.658 28.1803 104.228 29.0755 105.367 29.6289C105.888 29.8893 106.474 30.0195 107.125 30.0195V35.0488C103.967 35.0488 101.526 33.7793 99.8008 31.2402C98.9544 29.9707 98.5312 28.7663 98.5312 27.627ZM109.273 35.0488V30.0195C110.836 30.0195 111.861 29.3522 112.35 28.0176C112.48 27.6595 112.545 27.334 112.545 27.041V15.957C112.545 14.5898 111.91 13.6784 110.641 13.2227C110.217 13.0599 109.745 12.9785 109.225 12.9785V7.94922C112.285 7.94922 114.645 9.1862 116.305 11.6602C117.151 12.9297 117.574 14.1341 117.574 15.2734V27.627C117.574 29.222 116.891 30.7845 115.523 32.3145C113.863 34.1048 111.78 35.0163 109.273 35.0488ZM127.793 35V29.9707H130.527C132.057 29.9707 133.066 29.3685 133.555 28.1641C133.652 27.9362 133.701 27.7246 133.701 27.5293V15.4199C133.701 14.7689 133.327 14.1829 132.578 13.6621C131.96 13.2064 131.227 12.9785 130.381 12.9785H127.695V7.94922H130.381C133.473 7.94922 135.866 9.20247 137.559 11.709C138.405 12.9785 138.828 14.1829 138.828 15.3223V27.627C138.828 29.1895 138.145 30.7357 136.777 32.2656C135.117 34.056 133.034 34.9674 130.527 35H127.793ZM119.883 44.4727V7.94922H125.303V44.4727H119.883ZM149.242 35V29.9707H151.977C153.507 29.9707 154.516 29.3685 155.004 28.1641C155.102 27.9362 155.15 27.7246 155.15 27.5293V15.4199C155.15 14.7689 154.776 14.1829 154.027 13.6621C153.409 13.2064 152.676 12.9785 151.83 12.9785H149.145V7.94922H151.83C154.923 7.94922 157.315 9.20247 159.008 11.709C159.854 12.9785 160.277 14.1829 160.277 15.3223V27.627C160.277 29.1895 159.594 30.7357 158.227 32.2656C156.566 34.056 154.483 34.9674 151.977 35H149.242ZM141.332 44.4727V7.94922H146.752V44.4727H141.332ZM163.172 4.18945C163.172 2.98503 163.709 2.1224 164.783 1.60156C165.206 1.40625 165.63 1.30859 166.053 1.30859C167.29 1.30859 168.169 1.8457 168.689 2.91992C168.885 3.3431 168.982 3.76628 168.982 4.18945C168.982 5.36133 168.429 6.20768 167.322 6.72852C166.899 6.92383 166.476 7.02148 166.053 7.02148C164.881 7.02148 164.018 6.50065 163.465 5.45898C163.27 5.06836 163.172 4.64518 163.172 4.18945ZM163.514 35V8.97461H168.738V35H163.514ZM171.633 35V15.2734C171.633 13.7109 172.349 12.1647 173.781 10.6348C175.539 8.81185 177.72 7.88411 180.324 7.85156V13.0273C178.827 13.0273 177.785 13.6133 177.199 14.7852C177.004 15.1758 176.906 15.5501 176.906 15.9082V35H171.633ZM182.473 13.0273V7.85156C185.565 7.85156 187.99 9.10482 189.748 11.6113C190.692 12.9134 191.164 14.1341 191.164 15.2734V35H185.891V15.9082C185.891 14.9316 185.419 14.1504 184.475 13.5645C183.889 13.2064 183.221 13.0273 182.473 13.0273ZM192.643 44.1309L193.863 39.3457H203.287C204.817 39.2806 205.859 38.6458 206.412 37.4414C206.542 37.181 206.607 36.9531 206.607 36.7578V33.8281C205.305 34.4141 204.231 34.7233 203.385 34.7559V29.9219C204.817 29.9219 205.81 29.3685 206.363 28.2617C206.526 27.9362 206.607 27.627 206.607 27.334V15.127C206.607 14.248 206.103 13.5319 205.094 12.9785C204.54 12.6855 203.971 12.5391 203.385 12.5391V7.70508C204.524 7.70508 205.598 8.01432 206.607 8.63281V7.70508H211.637V36.7578C211.637 38.1576 211.002 39.6224 209.732 41.1523C208.072 43.1055 206.038 44.0983 203.629 44.1309H192.643ZM193.131 27.4316V14.9316C193.163 13.4017 193.847 11.888 195.182 10.3906C196.809 8.63281 198.844 7.73763 201.285 7.70508V12.5391C199.885 12.5391 198.893 13.125 198.307 14.2969C198.144 14.5898 198.062 14.8503 198.062 15.0781V27.3828C198.062 28.2292 198.535 28.9128 199.479 29.4336C200.032 29.7266 200.634 29.873 201.285 29.873V34.7559C198.258 34.7233 195.93 33.4375 194.303 30.8984C193.521 29.6615 193.131 28.5059 193.131 27.4316Z" fill="#880C0C"/>
</svg>
