<svg width="26" height="47" viewBox="0 0 26 47" fill="none" xmlns="http://www.w3.org/2000/svg">
<ellipse cx="13" cy="22" rx="11" ry="15" fill="#EDE6DD" stroke="#880C0C" stroke-width="3"/>
<path d="M7.27148 32.9422V11.0242H11.0557V16.1707C11.4593 16.0294 12.0042 15.9588 12.6904 15.9588V19.6824C11.984 19.6824 11.4694 20.0053 11.1465 20.6512C11.1061 20.7319 11.0859 20.7924 11.0859 20.8328V32.9422H7.27148ZM14.1738 19.6824V15.9588C16.1315 15.9588 17.6048 16.6551 18.5938 18.0477C19.1387 18.7944 19.4111 19.6219 19.4111 20.5301V32.9422H15.627V20.8328C15.627 20.5503 15.4655 20.2778 15.1426 20.0154C14.8802 19.7934 14.5573 19.6824 14.1738 19.6824Z" fill="#880C0C"/>
<path d="M12.7 5.5H14.2V38.5H12.7V5.5Z" fill="#EDE6DD"/>
</svg>
