<svg width="43" height="43" viewBox="0 0 43 43" fill="none" xmlns="http://www.w3.org/2000/svg">
<circle cx="21.5" cy="21.5" r="21.5" fill="#EDE6DD"/>
<path d="M7.00195 25.8584V17.1836C7.00195 16.252 7.39746 15.3027 8.18848 14.3359C9.24316 13.0703 10.5791 12.4287 12.1963 12.4111V16.1289C11.4756 16.1465 11.001 16.5508 10.7725 17.3418C10.7373 17.4648 10.7197 17.5527 10.7197 17.6055V25.8584C10.7197 26.5791 11.1152 27.0713 11.9062 27.335C12.0293 27.3701 12.1172 27.3877 12.1699 27.3877V31.1318C11.168 31.1318 10.166 30.7715 9.16406 30.0508C7.74023 28.9961 7.01953 27.5986 7.00195 25.8584ZM13.6201 31.1318V27.3877C13.9014 27.3877 14.2178 27.2383 14.5693 26.9395C14.9033 26.6406 15.0791 26.2803 15.0967 25.8584V17.6055C15.0967 17.2891 14.9473 16.9551 14.6484 16.6035C14.3672 16.3047 14.0244 16.1465 13.6201 16.1289V12.4111C15.3955 12.4111 16.8193 13.1758 17.8916 14.7051C18.5068 15.584 18.8145 16.4102 18.8145 17.1836V25.8584C18.8145 27.8096 17.9443 29.3037 16.2041 30.3408C15.29 30.8682 14.4287 31.1318 13.6201 31.1318ZM20.1138 31.2109V12.1211H23.4097V16.6035C23.7613 16.4805 24.2359 16.4189 24.8336 16.4189V19.6621C24.2183 19.6621 23.7701 19.9434 23.4888 20.5059C23.4537 20.5762 23.4361 20.6289 23.4361 20.6641V31.2109H20.1138ZM26.1255 19.6621V16.4189C27.8306 16.4189 29.1138 17.0254 29.9752 18.2383C30.4498 18.8887 30.6871 19.6094 30.6871 20.4004V31.2109H27.3912V20.6641C27.3912 20.418 27.2505 20.1807 26.9693 19.9521C26.7408 19.7588 26.4595 19.6621 26.1255 19.6621ZM31.9073 29.6025C31.9073 28.8115 32.2501 28.2227 32.9357 27.8359C33.2345 27.6777 33.5509 27.5986 33.8849 27.5986C34.6759 27.5986 35.256 27.9414 35.6251 28.627C35.7833 28.9258 35.8624 29.251 35.8624 29.6025C35.8624 30.4111 35.5109 30.9912 34.8077 31.3428C34.5265 31.501 34.2189 31.5801 33.8849 31.5801C33.0763 31.5801 32.4962 31.2285 32.1446 30.5254C31.9864 30.2266 31.9073 29.9189 31.9073 29.6025ZM32.2237 26.623V12.543H35.6251V26.623H32.2237Z" fill="#880C0C"/>
</svg>
